<?xml version="1.0" encoding="UTF-8"?>
<svg width="258px" height="31px" viewBox="0 0 258 31" version="1.1" xmlns="http://www.w3.org/2000/svg" xmlns:xlink="http://www.w3.org/1999/xlink">
    <!-- Generator: Sketch 43.1 (39012) - http://www.bohemiancoding.com/sketch -->
    <title>nobodies-logo</title>
    <desc>Created with Sketch.</desc>
    <defs></defs>
    <g id="Page-1" stroke="none" stroke-width="1" fill="none" fill-rule="evenodd">
        <g id="Group-3">
            <path d="M8.35690801,29.3917086 C9.38279734,28.8881423 10.4227542,28.4075009 11.4158193,27.8445383 C11.9910259,27.5183794 12.5060546,27.073949 13.0098814,26.6381153 C13.3954366,26.3044017 13.4803629,25.8336597 13.2370464,25.382977 C12.6889328,24.3685501 12.4206073,23.2126662 11.6463708,22.3084351 C11.4210295,22.0453198 11.3051024,21.682429 11.1657294,21.3536651 C10.9690442,20.8904779 11.0675171,20.4806953 11.3743981,20.0740388 C11.5346119,19.8614625 11.6247485,19.5636992 11.6560097,19.2938106 C11.7029015,18.8894987 11.6591358,18.4758085 11.6729429,18.0665469 C11.7325997,16.3049766 12.7876662,14.9875764 14.5294377,14.710654 C15.3490029,14.5801383 16.2381243,14.6046263 17.0509163,14.7742185 C18.6236166,15.1022009 19.574479,16.4196011 19.6346568,18.107968 C19.6437747,18.3697808 19.6573212,18.6339382 19.6338753,18.8939274 C19.587244,19.4159899 19.6721703,19.8593784 20.0428764,20.2860941 C20.2150737,20.4838214 20.2330489,20.905848 20.1715685,21.1944934 C20.0923733,21.5667625 19.9290334,21.9619565 19.6875404,22.2519044 C18.92659,23.1642113 18.6243981,24.3031621 18.086705,25.3238412 C17.8199425,25.8297521 17.9027848,26.3445203 18.3446101,26.7040244 C18.9112199,27.1653881 19.5020571,27.6129447 20.1358785,27.9721883 C21.1289436,28.5351509 22.169682,29.0134477 23.1846299,29.5386364 C23.4185681,29.6597736 23.8036022,29.9577973 23.8575278,30 L31.3102048,30 L15.6551024,1 L0,30 L7.42871003,30 C7.48680381,29.9564948 8.35690801,29.3917086 8.35690801,29.3917086" id="Fill-2" fill="#1A1918"></path>
            <path d="M60.5238539,1.3 L60.5238539,30 L56.1368539,30 L40.3108539,10.566 L40.3108539,30 L35.0218539,30 L35.0218539,1.3 L39.4088539,1.3 L55.2348539,20.734 L55.2348539,1.3 L60.5238539,1.3 Z M80.8433904,19.873 L80.8433904,30 L75.5133904,30 L75.5133904,19.955 L64.2383904,1.3 L69.9373904,1.3 L78.3423904,15.281 L86.8293904,1.3 L92.0773904,1.3 L80.8433904,19.873 Z M115.717927,15.076 C117.303268,15.5953359 118.560589,16.4631606 119.489927,17.6795 C120.419265,18.8958394 120.883927,20.405991 120.883927,22.21 C120.883927,24.6973458 119.92727,26.6174932 118.013927,27.9705 C116.100584,29.3235068 113.312612,30 109.649927,30 L95.381927,30 L95.381927,1.3 L108.829927,1.3 C112.219277,1.3 114.829584,1.9628267 116.660927,3.2885 C118.492269,4.6141733 119.407927,6.43865505 119.407927,8.762 C119.407927,10.1833404 119.07993,11.4406612 118.423927,12.534 C117.767924,13.6273388 116.865933,14.4746637 115.717927,15.076 Z M100.711927,5.482 L100.711927,13.395 L108.255927,13.395 C110.114603,13.395 111.542755,13.06017 112.540427,12.3905 C113.538099,11.72083 114.036927,10.7436731 114.036927,9.459 C114.036927,8.14699344 113.538099,7.15617002 112.540427,6.4865 C111.542755,5.81682998 110.114603,5.482 108.255927,5.482 L100.711927,5.482 Z M109.321927,25.818 C113.449281,25.818 115.512927,24.4376805 115.512927,21.677 C115.512927,18.9163195 113.449281,17.536 109.321927,17.536 L100.711927,17.536 L100.711927,25.818 L109.321927,25.818 Z M140.219463,30.41 C137.294782,30.41 134.657142,29.7745064 132.306463,28.5035 C129.955785,27.2324936 128.110804,25.4695113 126.771463,23.2145 C125.432123,20.9594887 124.762463,18.4380139 124.762463,15.65 C124.762463,12.8619861 125.432123,10.3405113 126.771463,8.0855 C128.110804,5.83048872 129.955785,4.06750635 132.306463,2.7965 C134.657142,1.52549365 137.294782,0.89 140.219463,0.89 C143.144145,0.89 145.781785,1.52549365 148.132463,2.7965 C150.483142,4.06750635 152.328123,5.82365546 153.667463,8.065 C155.006804,10.3063445 155.676463,12.8346526 155.676463,15.65 C155.676463,18.4653474 155.006804,20.9936555 153.667463,23.235 C152.328123,25.4763445 150.483142,27.2324936 148.132463,28.5035 C145.781785,29.7745064 143.144145,30.41 140.219463,30.41 Z M140.219463,25.736 C142.132806,25.736 143.854789,25.3055043 145.385463,24.4445 C146.916138,23.5834957 148.118792,22.3808411 148.993463,20.8365 C149.868135,19.2921589 150.305463,17.5633429 150.305463,15.65 C150.305463,13.7366571 149.868135,12.0078411 148.993463,10.4635 C148.118792,8.91915894 146.916138,7.7165043 145.385463,6.8555 C143.854789,5.9944957 142.132806,5.564 140.219463,5.564 C138.306121,5.564 136.584138,5.9944957 135.053463,6.8555 C133.522789,7.7165043 132.320135,8.91915894 131.445463,10.4635 C130.570792,12.0078411 130.133463,13.7366571 130.133463,15.65 C130.133463,17.5633429 130.570792,19.2921589 131.445463,20.8365 C132.320135,22.3808411 133.522789,23.5834957 135.053463,24.4445 C136.584138,25.3055043 138.306121,25.736 140.219463,25.736 Z M161.564,1.3 L174.11,1.3 C177.171349,1.3 179.890988,1.89449405 182.269,3.0835 C184.647012,4.27250594 186.491993,5.95348913 187.804,8.1265 C189.116007,10.2995109 189.772,12.8073191 189.772,15.65 C189.772,18.4926809 189.116007,21.0004891 187.804,23.1735 C186.491993,25.3465109 184.647012,27.0274941 182.269,28.2165 C179.890988,29.4055059 177.171349,30 174.11,30 L161.564,30 L161.564,1.3 Z M173.864,25.49 C175.968677,25.49 177.820492,25.0868374 179.4195,24.2805 C181.018508,23.4741626 182.248496,22.3261741 183.1095,20.8365 C183.970504,19.3468259 184.401,17.6180098 184.401,15.65 C184.401,13.6819902 183.970504,11.9531741 183.1095,10.4635 C182.248496,8.97382588 181.018508,7.82583737 179.4195,7.0195 C177.820492,6.21316264 175.968677,5.81 173.864,5.81 L166.894,5.81 L166.894,25.49 L173.864,25.49 Z M195.659537,1.3 L200.989537,1.3 L200.989537,30 L195.659537,30 L195.659537,1.3 Z M230.493073,25.531 L230.493073,30 L208.968073,30 L208.968073,1.3 L229.919073,1.3 L229.919073,5.769 L214.298073,5.769 L214.298073,13.231 L228.156073,13.231 L228.156073,17.618 L214.298073,17.618 L214.298073,25.531 L230.493073,25.531 Z M245.56461,30.41 C243.350598,30.41 241.211787,30.0956698 239.14811,29.467 C237.084433,28.8383302 235.451282,28.0046719 234.24861,26.966 L236.09361,22.825 C237.268949,23.754338 238.710768,24.5128304 240.41911,25.1005 C242.127451,25.6881696 243.842601,25.982 245.56461,25.982 C247.69662,25.982 249.288771,25.6403367 250.34111,24.957 C251.393448,24.2736633 251.91961,23.3716723 251.91961,22.251 C251.91961,21.4309959 251.625779,20.7545027 251.03811,20.2215 C250.45044,19.6884973 249.705614,19.2716682 248.80361,18.971 C247.901605,18.6703318 246.671617,18.3286686 245.11361,17.946 C242.926932,17.4266641 241.157116,16.9073359 239.80411,16.388 C238.451103,15.8686641 237.289448,15.0555055 236.31911,13.9485 C235.348771,12.8414945 234.86361,11.3450094 234.86361,9.459 C234.86361,7.87365874 235.294105,6.43183982 236.15511,5.1335 C237.016114,3.83516018 238.314434,2.80333716 240.05011,2.038 C241.785785,1.27266284 243.91093,0.89 246.42561,0.89 C248.174952,0.89 249.896934,1.10866448 251.59161,1.546 C253.286285,1.98333552 254.748603,2.6119959 255.97861,3.432 L254.29761,7.573 C253.04027,6.83499631 251.728283,6.27466858 250.36161,5.892 C248.994936,5.50933142 247.669283,5.318 246.38461,5.318 C244.279932,5.318 242.715115,5.67332978 241.69011,6.384 C240.665104,7.09467022 240.15261,8.03766079 240.15261,9.213 C240.15261,10.0330041 240.44644,10.7026641 241.03411,11.222 C241.621779,11.7413359 242.366605,12.1513318 243.26861,12.452 C244.170614,12.7526682 245.400602,13.0943314 246.95861,13.477 C249.09062,13.9690025 250.839936,14.4814973 252.20661,15.0145 C253.573283,15.5475027 254.741771,16.3606612 255.71211,17.454 C256.682448,18.5473388 257.16761,20.023324 257.16761,21.882 C257.16761,23.4673413 256.737114,24.9023269 255.87611,26.187 C255.015105,27.4716731 253.709952,28.4966628 251.96061,29.262 C250.211267,30.0273372 248.079289,30.41 245.56461,30.41 Z" id="NYBODIES" fill="#000000"></path>
        </g>
    </g>
</svg>