<?xml version="1.0" encoding="UTF-8"?>
<svg width="182px" height="168px" viewBox="0 0 182 168" version="1.1" xmlns="http://www.w3.org/2000/svg" xmlns:xlink="http://www.w3.org/1999/xlink">
    <!-- Generator: Sketch 43.1 (39012) - http://www.bohemiancoding.com/sketch -->
    <title>logo</title>
    <desc>Created with Sketch.</desc>
    <defs></defs>
    <g id="Page-1" stroke="none" stroke-width="1" fill="none" fill-rule="evenodd">
        <path d="M48.3603176,164.29905 C54.297003,161.384978 60.3150955,158.60357 66.061831,155.34578 C69.3904754,153.458343 72.3708784,150.886482 75.2864572,148.364371 C77.5176137,146.433215 78.0090712,143.709093 76.6010305,141.101052 C73.4291702,135.230698 71.8764058,128.541751 67.3960023,123.309086 C66.0919818,121.786473 65.4211273,119.686472 64.6145944,117.783959 C63.476403,115.103556 64.0462525,112.732198 65.8221325,110.378931 C66.7492684,109.14878 67.2708767,107.425664 67.4517812,105.863854 C67.7231381,103.524155 67.4698717,101.130184 67.5497712,98.7618419 C67.8949975,88.5678687 74.0005271,80.944248 84.0799275,79.3417349 C88.8226426,78.5864583 93.9678705,78.7281669 98.6713896,79.7095743 C107.772398,81.6075648 113.274912,89.2311855 113.623153,99.0015405 C113.675917,100.516616 113.754309,102.04526 113.618631,103.549783 C113.348781,106.57089 113.840239,109.13672 115.985466,111.606067 C116.981948,112.750289 117.085969,115.192501 116.73019,116.862853 C116.271898,119.017125 115.326672,121.30406 113.929184,122.98195 C109.525665,128.261349 107.77692,134.852306 104.665361,140.758841 C103.121642,143.68648 103.60104,146.665375 106.157824,148.745778 C109.43672,151.415628 112.855816,154.005579 116.523657,156.084474 C122.270392,159.342264 128.293008,162.110104 134.166376,165.149301 C135.520146,165.850306 137.748287,167.57493 138.060347,167.819151 L181.188,167.819151 L90.594,0 L0,167.819151 L42.988959,167.819151 C43.32514,167.567392 48.3603176,164.29905 48.3603176,164.29905" id="Fill-2" fill="#1A1918"></path>
    </g>
</svg>