<?xml version="1.0" encoding="UTF-8"?>
<svg width="775px" height="114px" viewBox="0 0 775 114" version="1.1" xmlns="http://www.w3.org/2000/svg" xmlns:xlink="http://www.w3.org/1999/xlink">
    <!-- Generator: Sketch 43.1 (39012) - http://www.bohemiancoding.com/sketch -->
    <title>logo-w</title>
    <desc>Created with Sketch.</desc>
    <defs>
        <filter x="-2.9%" y="-23.0%" width="105.9%" height="150.6%" filterUnits="objectBoundingBox" id="filter-1">
            <feOffset dx="0" dy="2" in="SourceAlpha" result="shadowOffsetOuter1"></feOffset>
            <feGaussianBlur stdDeviation="7" in="shadowOffsetOuter1" result="shadowBlurOuter1"></feGaussianBlur>
            <feColorMatrix values="0 0 0 0 0   0 0 0 0 0   0 0 0 0 0  0 0 0 0.180081133 0" type="matrix" in="shadowBlurOuter1" result="shadowMatrixOuter1"></feColorMatrix>
            <feMerge>
                <feMergeNode in="shadowMatrixOuter1"></feMergeNode>
                <feMergeNode in="SourceGraphic"></feMergeNode>
            </feMerge>
        </filter>
    </defs>
    <g id="Page-1" stroke="none" stroke-width="1" fill="none" fill-rule="evenodd">
        <g id="logo-w" filter="url(#filter-1)" transform="translate(12.000000, 12.000000)" fill="#FFFFFF">
            <path d="M24.9389647,84.0400216 C27.9394841,82.5671918 30.9811483,81.1614126 33.8856632,79.5148605 C35.5680266,78.5609117 37.0743818,77.2610422 38.5479736,75.9863167 C39.6756446,75.0102717 39.9240371,73.6334463 39.2123852,72.3152902 C37.6092636,69.3482962 36.8244655,65.9675688 34.5599801,63.3228753 C33.900902,62.553316 33.5618388,61.4919337 33.1542009,60.5303656 C32.5789363,59.1756364 32.8669496,57.9771049 33.7645148,56.7877167 C34.2331078,56.1659737 34.496739,55.2950764 34.5881718,54.5057066 C34.725321,53.3231759 34.5973151,52.1132153 34.6376979,50.9162077 C34.8121822,45.76397 37.8980388,41.9108399 42.9923691,41.1008977 C45.3894321,40.7191658 47.989933,40.7907882 50.3671855,41.2868111 C54.9670168,42.2460934 57.7480975,46.0992236 57.9241056,51.0373562 C57.9507735,51.8031058 57.9903944,52.5757128 57.9218198,53.3361289 C57.7854325,54.8630565 58.033825,56.1598782 59.1180654,57.4079358 C59.6217077,57.9862482 59.6742816,59.2205908 59.4944638,60.0648203 C59.262834,61.1536324 58.7850977,62.3094953 58.0787794,63.1575344 C55.8531529,65.825848 54.9693026,69.1570493 53.3966586,72.1423299 C52.6164322,73.6220172 52.858729,75.1276104 54.1509791,76.1790875 C55.8081985,77.5284831 57.5362782,78.8374959 59.390078,79.888211 C62.294593,81.5347632 65.3385429,82.9336849 68.3070608,84.4697557 C68.9912829,84.8240578 70.1174301,85.6957171 70.2751516,85.8191513 L92.0727287,85.8191513 L46.2847115,1 L0.496694215,85.8191513 L22.2241728,85.8191513 C22.3940854,85.6919074 24.9389647,84.0400216 24.9389647,84.0400216" id="Fill-2"></path>
            <path d="M178.313138,1.7 L178.313138,85 L165.580138,85 L119.646138,28.594 L119.646138,85 L104.295138,85 L104.295138,1.7 L117.028138,1.7 L162.962138,58.106 L162.962138,1.7 L178.313138,1.7 Z M237.289353,55.607 L237.289353,85 L221.819353,85 L221.819353,55.845 L189.094353,1.7 L205.635353,1.7 L230.030353,42.279 L254.663353,1.7 L269.895353,1.7 L237.289353,55.607 Z M338.510569,41.684 C343.111925,43.1913409 346.761222,45.710149 349.458569,49.2405 C352.155916,52.770851 353.504569,57.1539738 353.504569,62.39 C353.504569,69.6093694 350.72793,75.1824804 345.174569,79.1095 C339.621208,83.0365196 331.529289,85 320.898569,85 L279.486569,85 L279.486569,1.7 L318.518569,1.7 C328.355951,1.7 335.932209,3.6238141 341.247569,7.4715 C346.562929,11.3191859 349.220569,16.6146329 349.220569,23.358 C349.220569,27.483354 348.268578,31.1326508 346.364569,34.306 C344.460559,37.4793492 341.842585,39.9386579 338.510569,41.684 Z M294.956569,13.838 L294.956569,36.805 L316.852569,36.805 C322.247262,36.805 326.392388,35.8331764 329.288069,33.8895 C332.18375,31.9458236 333.631569,29.1096853 333.631569,25.381 C333.631569,21.572981 332.18375,18.6971764 329.288069,16.7535 C326.392388,14.8098236 322.247262,13.838 316.852569,13.838 L294.956569,13.838 Z M319.946569,72.862 C331.925962,72.862 337.915569,68.8557067 337.915569,60.843 C337.915569,52.8302933 331.925962,48.824 319.946569,48.824 L294.956569,48.824 L294.956569,72.862 L319.946569,72.862 Z M409.624784,86.19 C401.136075,86.19 393.480485,84.3455184 386.657784,80.6565 C379.835084,76.9674816 374.480137,71.8505327 370.592784,65.3055 C366.705432,58.7604673 364.761784,51.4420405 364.761784,43.35 C364.761784,35.2579595 366.705432,27.9395327 370.592784,21.3945 C374.480137,14.8494673 379.835084,9.73251844 386.657784,6.0435 C393.480485,2.35448156 401.136075,0.51 409.624784,0.51 C418.113494,0.51 425.769084,2.35448156 432.591784,6.0435 C439.414485,9.73251844 444.769432,14.8296341 448.656784,21.335 C452.544137,27.8403659 454.487784,35.1786258 454.487784,43.35 C454.487784,51.5213742 452.544137,58.8596341 448.656784,65.365 C444.769432,71.8703659 439.414485,76.9674816 432.591784,80.6565 C425.769084,84.3455184 418.113494,86.19 409.624784,86.19 Z M409.624784,72.624 C415.178146,72.624 420.176096,71.3745125 424.618784,68.8755 C429.061473,66.3764875 432.552105,62.8858557 435.090784,58.4035 C437.629464,53.9211443 438.898784,48.9033611 438.898784,43.35 C438.898784,37.7966389 437.629464,32.7788557 435.090784,28.2965 C432.552105,23.8141443 429.061473,20.3235125 424.618784,17.8245 C420.176096,15.3254875 415.178146,14.076 409.624784,14.076 C404.071423,14.076 399.073473,15.3254875 394.630784,17.8245 C390.188096,20.3235125 386.697464,23.8141443 384.158784,28.2965 C381.620105,32.7788557 380.350784,37.7966389 380.350784,43.35 C380.350784,48.9033611 381.620105,53.9211443 384.158784,58.4035 C386.697464,62.8858557 390.188096,66.3764875 394.630784,68.8755 C399.073473,71.3745125 404.071423,72.624 409.624784,72.624 Z M471.576,1.7 L507.99,1.7 C516.875378,1.7 524.768965,3.42548274 531.671,6.8765 C538.573035,10.3275173 543.927981,15.2064685 547.736,21.5135 C551.544019,27.8205315 553.448,35.0992921 553.448,43.35 C553.448,51.6007079 551.544019,58.8794685 547.736,65.1865 C543.927981,71.4935315 538.573035,76.3724827 531.671,79.8235 C524.768965,83.2745173 516.875378,85 507.99,85 L471.576,85 L471.576,1.7 Z M507.276,71.91 C513.384697,71.91 518.759477,70.739845 523.4005,68.3995 C528.041523,66.059155 531.611488,62.7271883 534.1105,58.4035 C536.609512,54.0798117 537.859,49.0620286 537.859,43.35 C537.859,37.6379714 536.609512,32.6201883 534.1105,28.2965 C531.611488,23.9728117 528.041523,20.640845 523.4005,18.3005 C518.759477,15.960155 513.384697,14.79 507.276,14.79 L487.046,14.79 L487.046,71.91 L507.276,71.91 Z M570.536216,1.7 L586.006216,1.7 L586.006216,85 L570.536216,85 L570.536216,1.7 Z M671.638431,72.029 L671.638431,85 L609.163431,85 L609.163431,1.7 L669.972431,1.7 L669.972431,14.671 L624.633431,14.671 L624.633431,36.329 L664.855431,36.329 L664.855431,49.062 L624.633431,49.062 L624.633431,72.029 L671.638431,72.029 Z M715.382647,86.19 C708.956615,86.19 702.748843,85.2776758 696.759147,83.453 C690.76945,81.6283242 686.029331,79.2086817 682.538647,76.194 L687.893647,64.175 C691.304997,66.8723468 695.489789,69.0738248 700.448147,70.7795 C705.406505,72.4851752 710.384622,73.338 715.382647,73.338 C721.570678,73.338 726.191798,72.3463433 729.246147,70.363 C732.300495,68.3796567 733.827647,65.7616829 733.827647,62.509 C733.827647,60.1289881 732.974822,58.1655077 731.269147,56.6185 C729.563472,55.0714923 727.40166,53.861671 724.783647,52.989 C722.165634,52.116329 718.595669,51.1246722 714.073647,50.014 C707.726948,48.5066591 702.590166,46.9993409 698.663147,45.492 C694.736127,43.9846591 691.364494,41.6245161 688.548147,38.4115 C685.731799,35.1984839 684.323647,30.8550274 684.323647,25.381 C684.323647,20.7796437 685.573134,16.5948522 688.072147,12.8265 C690.571159,9.05814782 694.339455,6.06334444 699.377147,3.842 C704.414839,1.62065556 710.582944,0.51 717.881647,0.51 C722.959006,0.51 727.956956,1.14466032 732.875647,2.414 C737.794338,3.68333968 742.038629,5.5079881 745.608647,7.888 L740.729647,19.907 C737.080295,17.7649893 733.272333,16.1386722 729.305647,15.028 C725.33896,13.9173278 721.491332,13.362 717.762647,13.362 C711.65395,13.362 707.112162,14.393323 704.137147,16.456 C701.162132,18.518677 699.674647,21.2556496 699.674647,24.667 C699.674647,27.0470119 700.527472,28.9906591 702.233147,30.498 C703.938822,32.0053409 706.100634,33.195329 708.718647,34.068 C711.33666,34.940671 714.906624,35.9323278 719.428647,37.043 C725.616678,38.4710071 730.69396,39.9584923 734.660647,41.5055 C738.627333,43.0525077 742.018799,45.4126508 744.835147,48.586 C747.651494,51.7593492 749.059647,56.0433064 749.059647,61.438 C749.059647,66.0393563 747.810159,70.2043147 745.311147,73.933 C742.812134,77.6616853 739.024006,80.6366556 733.946647,82.858 C728.869288,85.0793444 722.68135,86.19 715.382647,86.19 Z" id="NYBODIES"></path>
        </g>
    </g>
</svg>